<?xml version="1.0" standalone="no"?>
<!DOCTYPE svg PUBLIC "-//W3C//DTD SVG 20010904//EN"
 "http://www.w3.org/TR/2001/REC-SVG-20010904/DTD/svg10.dtd">
<svg version="1.0" xmlns="http://www.w3.org/2000/svg"
 width="1045.000000pt" height="1045.000000pt" viewBox="0 0 1045.000000 1045.000000"
 preserveAspectRatio="xMidYMid meet">
<metadata>
Created by potrace 1.11, written by Peter Selinger 2001-2013
</metadata>
<g transform="translate(0.000000,1045.000000) scale(0.100000,-0.100000)"
fill="#000000" stroke="none">
<path d="M100 5230 l0 -3840 5120 0 5120 0 0 320 0 320 -4800 0 -4800 0 0
3520 0 3520 -320 0 -320 0 0 -3840z"/>
<path d="M7293 8415 c-36 -15 -80 -75 -89 -122 -14 -71 2 -91 335 -426 l317
-319 -1153 -1151 c-634 -634 -1157 -1152 -1162 -1152 -6 0 -275 264 -598 586
-323 322 -599 592 -612 599 -42 22 -117 16 -159 -14 -20 -14 -694 -683 -1497
-1487 l-1460 -1461 484 -480 483 -481 1042 1041 1041 1040 595 -597 c536 -539
599 -599 638 -608 28 -7 56 -8 85 -1 39 9 172 140 1638 1607 l1595 1597 323
-318 c353 -347 364 -355 439 -328 55 19 93 49 108 86 12 28 14 221 14 1156 0
1082 -1 1125 -19 1165 -14 30 -31 48 -60 62 -40 21 -49 21 -1168 21 -939 -1
-1133 -3 -1160 -15z"/>
</g>
</svg>
